<svg width="336" height="331" viewBox="0 0 336 331" fill="none" xmlns="http://www.w3.org/2000/svg">
<g filter="url(#filter0_b_1351_21711)">
<rect x="0.0546875" y="0.425293" width="335" height="330" rx="33.2621" fill="black" fill-opacity="0.7"/>
<line x1="166.198" y1="262.486" x2="166.198" y2="31.6647" stroke="white" stroke-width="0.769184"/>
<path d="M269.346 215.122C269.346 215.98 268.813 216.939 267.503 217.982C266.203 219.017 264.244 220.045 261.656 221.042C256.486 223.033 248.964 224.84 239.622 226.362C220.948 229.403 195.125 231.288 166.584 231.288C138.042 231.288 112.219 229.403 93.5451 226.362C84.2027 224.84 76.6815 223.033 71.5115 221.042C68.9229 220.045 66.9639 219.017 65.6643 217.982C64.3542 216.939 63.8211 215.98 63.8211 215.122C63.8211 214.265 64.3542 213.305 65.6643 212.262C66.9639 211.228 68.9229 210.2 71.5115 209.203C76.6815 207.212 84.2027 205.405 93.5451 203.883C112.219 200.841 138.042 198.957 166.584 198.957C195.125 198.957 220.948 200.841 239.622 203.883C248.964 205.405 256.486 207.212 261.656 209.203C264.244 210.2 266.203 211.228 267.503 212.262C268.813 213.305 269.346 214.265 269.346 215.122Z" stroke="white" stroke-width="1.37069"/>
<path d="M195.146 119.195C195.146 119.798 194.634 120.574 193.187 121.42C191.788 122.239 189.718 122.999 187.1 123.647C181.875 124.94 174.621 125.746 166.583 125.746C158.545 125.746 151.291 124.94 146.066 123.647C143.448 122.999 141.378 122.239 139.979 121.42C138.533 120.574 138.02 119.798 138.02 119.195C138.02 118.591 138.533 117.816 139.979 116.969C141.378 116.151 143.448 115.39 146.066 114.742C151.291 113.45 158.545 112.643 166.583 112.643C174.621 112.643 181.875 113.45 187.1 114.742C189.718 115.39 191.788 116.151 193.187 116.969C194.634 117.816 195.146 118.591 195.146 119.195Z" stroke="white" stroke-width="1.37069"/>
<path d="M201.891 127.915C201.891 128.255 201.741 128.645 201.337 129.089C200.93 129.537 200.297 130.003 199.425 130.468C197.682 131.396 195.114 132.254 191.883 132.982C185.432 134.436 176.487 135.341 166.582 135.341C156.678 135.341 147.733 134.436 141.282 132.982C138.051 132.254 135.483 131.396 133.74 130.468C132.867 130.003 132.235 129.537 131.828 129.089C131.424 128.645 131.274 128.255 131.274 127.915C131.274 127.575 131.424 127.186 131.828 126.741C132.235 126.293 132.867 125.827 133.74 125.363C135.483 124.434 138.051 123.576 141.282 122.848C147.733 121.395 156.678 120.489 166.582 120.489C176.487 120.489 185.432 121.395 191.883 122.848C195.114 123.576 197.682 124.434 199.425 125.363C200.297 125.827 200.93 126.293 201.337 126.741C201.741 127.186 201.891 127.575 201.891 127.915Z" stroke="white" stroke-width="1.37069"/>
<path d="M208.637 136.636C208.637 137.019 208.456 137.463 207.963 137.969C207.469 138.477 206.704 139 205.659 139.519C203.572 140.557 200.507 141.511 196.664 142.319C188.988 143.932 178.353 144.936 166.584 144.936C154.814 144.936 144.179 143.932 136.504 142.319C132.66 141.511 129.596 140.557 127.508 139.519C126.464 139 125.699 138.477 125.204 137.969C124.712 137.463 124.53 137.019 124.53 136.636C124.53 136.252 124.712 135.809 125.204 135.303C125.699 134.795 126.464 134.271 127.508 133.752C129.596 132.715 132.66 131.761 136.504 130.953C144.179 129.339 154.814 128.336 166.584 128.336C178.353 128.336 188.988 129.339 196.664 130.953C200.507 131.761 203.572 132.715 205.659 133.752C206.704 134.271 207.469 134.795 207.963 135.303C208.456 135.809 208.637 136.252 208.637 136.636Z" stroke="white" stroke-width="1.37069"/>
<path d="M215.382 145.357C215.382 145.787 215.166 146.286 214.584 146.853C214.001 147.421 213.104 148.001 211.887 148.575C209.456 149.72 205.895 150.769 201.44 151.656C192.541 153.429 180.217 154.531 166.583 154.531C152.949 154.531 140.625 153.429 131.726 151.656C127.271 150.769 123.71 149.72 121.279 148.575C120.062 148.001 119.165 147.421 118.582 146.853C118 146.286 117.784 145.787 117.784 145.357C117.784 144.927 118 144.428 118.582 143.861C119.165 143.293 120.062 142.713 121.279 142.139C123.71 140.994 127.271 139.945 131.726 139.058C140.625 137.285 152.949 136.183 166.583 136.183C180.217 136.183 192.541 137.285 201.44 139.058C205.895 139.945 209.456 140.994 211.887 142.139C213.104 142.713 214.001 143.293 214.584 143.861C215.166 144.428 215.382 144.927 215.382 145.357Z" stroke="white" stroke-width="1.37069"/>
<path d="M222.127 154.078C222.127 154.557 221.875 155.112 221.202 155.74C220.53 156.367 219.501 157.004 218.112 157.631C215.338 158.883 211.281 160.027 206.214 160.994C196.093 162.926 182.08 164.125 166.582 164.125C151.085 164.125 137.072 162.926 126.95 160.994C121.884 160.027 117.827 158.883 115.053 157.631C113.664 157.004 112.635 156.367 111.962 155.74C111.29 155.112 111.038 154.557 111.038 154.078C111.038 153.598 111.29 153.043 111.962 152.416C112.635 151.789 113.664 151.151 115.053 150.524C117.827 149.273 121.884 148.128 126.95 147.161C137.072 145.229 151.085 144.03 166.582 144.03C182.08 144.03 196.093 145.229 206.214 147.161C211.281 148.128 215.338 149.273 218.112 150.524C219.501 151.151 220.53 151.789 221.202 152.416C221.875 153.043 222.127 153.598 222.127 154.078Z" stroke="white" stroke-width="1.37069"/>
<path d="M228.873 162.799C228.873 163.329 228.583 163.941 227.82 164.629C227.058 165.315 225.896 166.009 224.335 166.689C221.219 168.047 216.666 169.286 210.989 170.332C199.645 172.423 183.944 173.721 166.583 173.721C149.221 173.721 133.521 172.423 122.177 170.332C116.499 169.286 111.947 168.047 108.83 166.689C107.269 166.009 106.107 165.315 105.346 164.629C104.582 163.941 104.293 163.329 104.293 162.799C104.293 162.268 104.582 161.657 105.346 160.969C106.107 160.283 107.269 159.589 108.83 158.909C111.947 157.551 116.499 156.312 122.177 155.265C133.521 153.175 149.221 151.877 166.583 151.877C183.944 151.877 199.645 153.175 210.989 155.265C216.666 156.312 221.219 157.551 224.335 158.909C225.896 159.589 227.058 160.283 227.82 160.969C228.583 161.657 228.873 162.268 228.873 162.799Z" stroke="white" stroke-width="1.37069"/>
<path d="M235.618 171.519C235.618 172.102 235.291 172.771 234.436 173.518C233.585 174.263 232.29 175.013 230.558 175.746C227.098 177.21 222.051 178.544 215.762 179.67C203.196 181.919 185.808 183.315 166.583 183.315C147.358 183.315 129.97 181.919 117.404 179.67C111.115 178.544 106.068 177.21 102.608 175.746C100.876 175.013 99.581 174.263 98.73 173.518C97.8754 172.771 97.5476 172.102 97.5476 171.519C97.5476 170.936 97.8754 170.267 98.73 169.519C99.581 168.775 100.876 168.025 102.608 167.292C106.068 165.828 111.115 164.494 117.404 163.368C129.97 161.118 147.358 159.723 166.583 159.723C185.808 159.723 203.196 161.118 215.762 163.368C222.051 164.494 227.098 165.828 230.558 167.292C232.29 168.025 233.585 168.775 234.436 169.519C235.291 170.267 235.618 170.936 235.618 171.519Z" stroke="white" stroke-width="1.37069"/>
<path d="M242.364 180.24C242.364 180.876 241.997 181.603 241.051 182.41C240.11 183.213 238.683 184.019 236.779 184.805C232.977 186.375 227.435 187.803 220.535 189.009C206.747 191.417 187.672 192.91 166.583 192.91C145.495 192.91 126.42 191.417 112.632 189.009C105.732 187.803 100.189 186.375 96.3879 184.805C94.484 184.019 93.0562 183.213 92.1156 182.41C91.1699 181.603 90.8025 180.876 90.8025 180.24C90.8025 179.604 91.1699 178.877 92.1156 178.07C93.0562 177.267 94.484 176.461 96.3879 175.675C100.189 174.105 105.732 172.677 112.632 171.472C126.42 169.064 145.495 167.57 166.583 167.57C187.672 167.57 206.747 169.064 220.535 171.472C227.435 172.677 232.977 174.105 236.779 175.675C238.683 176.461 240.11 177.267 241.051 178.07C241.997 178.877 242.364 179.604 242.364 180.24Z" stroke="white" stroke-width="1.37069"/>
<path d="M249.109 188.961C249.109 189.651 248.701 190.436 247.664 191.302C246.634 192.163 245.073 193.025 242.998 193.864C238.854 195.539 232.817 197.062 225.307 198.347C210.297 200.913 189.534 202.504 166.583 202.504C143.631 202.504 122.868 200.913 107.859 198.347C100.348 197.062 94.311 195.539 90.1671 193.864C88.092 193.025 86.5314 192.163 85.5011 191.302C84.4643 190.436 84.0564 189.651 84.0564 188.961C84.0564 188.27 84.4643 187.485 85.5011 186.619C86.5314 185.758 88.092 184.896 90.1671 184.057C94.311 182.382 100.348 180.859 107.859 179.575C122.868 177.008 143.631 175.417 166.583 175.417C189.534 175.417 210.297 177.008 225.307 179.575C232.817 180.859 238.854 182.382 242.998 184.057C245.073 184.896 246.634 185.758 247.664 186.619C248.701 187.485 249.109 188.27 249.109 188.961Z" stroke="white" stroke-width="1.37069"/>
<path d="M255.855 197.681C255.855 198.427 255.406 199.27 254.278 200.195C253.158 201.114 251.464 202.031 249.218 202.923C244.732 204.704 238.2 206.321 230.079 207.685C213.847 210.41 191.398 212.099 166.583 212.099C141.768 212.099 119.318 210.41 103.087 207.685C94.9661 206.321 88.4341 204.704 83.9481 202.923C81.7017 202.031 80.0083 201.114 78.8883 200.195C77.7603 199.27 77.3113 198.427 77.3113 197.681C77.3113 196.936 77.7603 196.093 78.8883 195.167C80.0083 194.248 81.7017 193.331 83.9481 192.439C88.4341 190.659 94.9661 189.041 103.087 187.678C119.318 184.952 141.768 183.263 166.583 183.263C191.398 183.263 213.847 184.952 230.079 187.678C238.2 189.041 244.732 190.659 249.218 192.439C251.464 193.331 253.158 194.248 254.278 195.167C255.406 196.093 255.855 196.936 255.855 197.681Z" stroke="white" stroke-width="1.37069"/>
<path d="M262.6 206.402C262.6 207.203 262.109 208.104 260.89 209.089C259.681 210.065 257.854 211.038 255.437 211.982C250.609 213.868 243.582 215.581 234.85 217.023C217.398 219.907 193.261 221.694 166.583 221.694C139.905 221.694 115.769 219.907 98.3161 217.023C89.5843 215.581 82.5577 213.868 77.7296 211.982C75.3121 211.038 73.4858 210.065 72.276 209.089C71.057 208.104 70.5662 207.203 70.5662 206.402C70.5662 205.601 71.057 204.699 72.276 203.715C73.4858 202.738 75.3121 201.765 77.7296 200.821C82.5577 198.935 89.5843 197.223 98.3161 195.78C115.769 192.897 139.905 191.11 166.583 191.11C193.261 191.11 217.398 192.897 234.85 195.78C243.582 197.223 250.609 198.935 255.437 200.821C257.854 201.765 259.681 202.738 260.89 203.715C262.109 204.699 262.6 205.601 262.6 206.402Z" stroke="white" stroke-width="1.37069"/>
<circle cx="166.583" cy="85.4412" r="25.7648" stroke="white" stroke-width="1.53837"/>
<line x1="40.6143" y1="214.738" x2="292.553" y2="214.738" stroke="white" stroke-width="0.769184"/>
<rect x="1.05469" y="1.42529" width="333" height="328" rx="32.2621" stroke="url(#paint0_linear_1351_21711)" stroke-width="2"/>
</g>
<defs>
<filter id="filter0_b_1351_21711" x="-199.945" y="-199.575" width="735" height="730" filterUnits="userSpaceOnUse" color-interpolation-filters="sRGB">
<feFlood flood-opacity="0" result="BackgroundImageFix"/>
<feGaussianBlur in="BackgroundImageFix" stdDeviation="100"/>
<feComposite in2="SourceAlpha" operator="in" result="effect1_backgroundBlur_1351_21711"/>
<feBlend mode="normal" in="SourceGraphic" in2="effect1_backgroundBlur_1351_21711" result="shape"/>
</filter>
<linearGradient id="paint0_linear_1351_21711" x1="320.055" y1="315.228" x2="5.67603" y2="36.5471" gradientUnits="userSpaceOnUse">
<stop stop-color="#38B973"/>
<stop offset="1" stop-color="#00FFFF"/>
</linearGradient>
</defs>
</svg>
